<svg width="187" height="61" viewBox="0 0 187 61" fill="none" xmlns="http://www.w3.org/2000/svg">
<rect x="-0.000305176" y="-0.000488281" width="186.251" height="60.225" rx="6.69167" fill="#131313"/>
<path d="M53.2078 39.985C52.7434 41.0228 52.1936 41.978 51.5567 42.8562C50.6885 44.0535 49.9776 44.8822 49.4298 45.3424C48.5805 46.0978 47.6706 46.4847 46.6962 46.5067C45.9967 46.5067 45.1532 46.3142 44.1712 45.9237C43.1861 45.535 42.2807 45.3424 41.4529 45.3424C40.5847 45.3424 39.6535 45.535 38.6576 45.9237C37.6601 46.3142 36.8565 46.5177 36.2421 46.5379C35.3078 46.5764 34.3764 46.1785 33.4468 45.3424C32.8535 44.8419 32.1113 43.9838 31.2223 42.7682C30.2684 41.4701 29.4841 39.9649 28.8698 38.2487C28.2118 36.3951 27.8819 34.6001 27.8819 32.8623C27.8819 30.8717 28.3267 29.1548 29.2174 27.7161C29.9175 26.5605 30.8488 25.6489 32.0145 24.9796C33.1801 24.3104 34.4396 23.9694 35.7959 23.9476C36.538 23.9476 37.5113 24.1696 38.7207 24.606C39.9267 25.0438 40.7011 25.2659 41.0406 25.2659C41.2944 25.2659 42.1546 25.0062 43.613 24.4886C44.9921 24.0086 46.156 23.8099 47.1095 23.8882C49.6933 24.0899 51.6344 25.075 52.9253 26.8498C50.6145 28.204 49.4715 30.1007 49.4942 32.5339C49.5151 34.4292 50.2259 36.0064 51.623 37.2586C52.2562 37.8398 52.9632 38.2891 53.7499 38.6081C53.5793 39.0866 53.3993 39.545 53.2078 39.985ZM47.282 17.4314C47.282 18.9169 46.7209 20.3039 45.6025 21.5877C44.2528 23.1139 42.6202 23.9958 40.8499 23.8566C40.8273 23.6784 40.8142 23.4909 40.8142 23.2938C40.8142 21.8677 41.4561 20.3415 42.596 19.0936C43.165 18.4618 43.8888 17.9365 44.7665 17.5174C45.6423 17.1046 46.4707 16.8763 47.2498 16.8372C47.2725 17.0357 47.282 17.2343 47.282 17.4314V17.4314Z" fill="white"/>
<path d="M83.5493 45.5469H80.9976L80.0161 42.6739H75.5015L74.5201 45.5469H72.004L76.3045 33.7695H79.2488L83.5493 45.5469ZM76.0547 40.8538H79.463L77.7499 35.7146L76.0547 40.8538ZM84.868 49.2942V36.6247H87.0629L87.2235 39.4619L86.9201 39.1407C87.0272 38.6173 87.2235 38.1533 87.509 37.7489C87.8064 37.3444 88.1811 37.0291 88.6332 36.8031C89.0853 36.5652 89.5909 36.4462 90.15 36.4462C90.8757 36.4462 91.524 36.6306 92.095 36.9994C92.666 37.3682 93.1122 37.8976 93.4334 38.5875C93.7665 39.2656 93.933 40.0924 93.933 41.0679C93.933 42.0434 93.7665 42.8821 93.4334 43.584C93.1003 44.274 92.6423 44.8034 92.0593 45.1721C91.4883 45.5409 90.834 45.7253 90.0964 45.7253C89.3113 45.7253 88.657 45.5052 88.1336 45.0651C87.622 44.6249 87.2711 44.0717 87.0807 43.4055L87.3127 43.0308V49.2942H84.868ZM89.3827 43.8517C90.037 43.8517 90.5485 43.6197 90.9173 43.1557C91.298 42.6799 91.4883 41.9899 91.4883 41.0858C91.4883 40.1816 91.3039 39.4976 90.9351 39.0337C90.5782 38.5578 90.0727 38.3199 89.4184 38.3199C89.002 38.3199 88.6332 38.4329 88.312 38.6589C88.0027 38.8731 87.7588 39.1883 87.5804 39.6047C87.4019 40.0091 87.3127 40.5028 87.3127 41.0858C87.3127 41.6568 87.396 42.1505 87.5625 42.5669C87.7291 42.9832 87.967 43.3044 88.2763 43.5305C88.5975 43.7446 88.9663 43.8517 89.3827 43.8517ZM95.8772 49.2942V36.6247H98.0721L98.2327 39.4619L97.9293 39.1407C98.0364 38.6173 98.2327 38.1533 98.5182 37.7489C98.8156 37.3444 99.1903 37.0291 99.6424 36.8031C100.094 36.5652 100.6 36.4462 101.159 36.4462C101.885 36.4462 102.533 36.6306 103.104 36.9994C103.675 37.3682 104.121 37.8976 104.443 38.5875C104.776 39.2656 104.942 40.0924 104.942 41.0679C104.942 42.0434 104.776 42.8821 104.443 43.584C104.109 44.274 103.651 44.8034 103.069 45.1721C102.497 45.5409 101.843 45.7253 101.106 45.7253C100.32 45.7253 99.6662 45.5052 99.1427 45.0651C98.6312 44.6249 98.2803 44.0717 98.0899 43.4055L98.3219 43.0308V49.2942H95.8772ZM100.392 43.8517C101.046 43.8517 101.558 43.6197 101.926 43.1557C102.307 42.6799 102.497 41.9899 102.497 41.0858C102.497 40.1816 102.313 39.4976 101.944 39.0337C101.587 38.5578 101.082 38.3199 100.428 38.3199C100.011 38.3199 99.6424 38.4329 99.3212 38.6589C99.0119 38.8731 98.768 39.1883 98.5896 39.6047C98.4111 40.0091 98.3219 40.5028 98.3219 41.0858C98.3219 41.6568 98.4052 42.1505 98.5717 42.5669C98.7383 42.9832 98.9762 43.3044 99.2855 43.5305C99.6067 43.7446 99.9755 43.8517 100.392 43.8517ZM116.713 33.5911C117.783 33.5911 118.723 33.7755 119.532 34.1443C120.341 34.5131 121.031 35.0603 121.602 35.786L120.228 37.3741C119.74 36.7555 119.205 36.3035 118.622 36.0179C118.051 35.7205 117.385 35.5718 116.623 35.5718C116.124 35.5718 115.707 35.6373 115.374 35.7681C115.053 35.899 114.815 36.0715 114.661 36.2856C114.518 36.4997 114.446 36.7377 114.446 36.9994C114.446 37.3206 114.571 37.5942 114.821 37.8202C115.071 38.0344 115.499 38.2128 116.106 38.3556L118.301 38.8552C119.467 39.1169 120.299 39.5095 120.799 40.0329C121.311 40.5445 121.566 41.2107 121.566 42.0315C121.566 42.8048 121.364 43.471 120.96 44.0301C120.555 44.5773 119.99 44.9996 119.264 45.2971C118.539 45.5826 117.706 45.7253 116.766 45.7253C115.945 45.7253 115.19 45.6301 114.5 45.4398C113.822 45.2376 113.215 44.964 112.68 44.619C112.145 44.274 111.698 43.8754 111.342 43.4234L112.733 41.7639C113.007 42.1445 113.346 42.4836 113.751 42.781C114.155 43.0784 114.613 43.3163 115.125 43.4948C115.648 43.6613 116.195 43.7446 116.766 43.7446C117.254 43.7446 117.664 43.6911 117.997 43.584C118.342 43.465 118.598 43.3044 118.765 43.1022C118.943 42.8881 119.032 42.6323 119.032 42.3349C119.032 42.0256 118.925 41.7639 118.711 41.5497C118.509 41.3237 118.128 41.1512 117.569 41.0322L115.178 40.4969C114.488 40.3303 113.893 40.1162 113.394 39.8545C112.906 39.5809 112.531 39.2359 112.269 38.8195C112.02 38.3913 111.895 37.8857 111.895 37.3027C111.895 36.6009 112.085 35.9704 112.466 35.4112C112.846 34.8521 113.394 34.4119 114.107 34.0907C114.833 33.7576 115.702 33.5911 116.713 33.5911ZM126.626 33.8945V42.6382C126.626 43.0665 126.733 43.3817 126.947 43.584C127.173 43.7743 127.477 43.8695 127.858 43.8695C128.155 43.8695 128.417 43.8279 128.643 43.7446C128.869 43.6494 129.071 43.5245 129.249 43.3699L129.642 44.9937C129.356 45.2197 129 45.3982 128.571 45.529C128.143 45.6599 127.691 45.7253 127.215 45.7253C126.62 45.7253 126.091 45.6361 125.627 45.4577C125.175 45.2792 124.818 44.9937 124.556 44.6011C124.306 44.2085 124.182 43.6851 124.182 43.0308V34.5725L126.626 33.8945ZM129.481 36.6247V38.4448H122.54V36.6247H129.481ZM135.025 36.4462C135.93 36.4462 136.721 36.6306 137.399 36.9994C138.089 37.3682 138.624 37.8976 139.005 38.5875C139.397 39.2775 139.594 40.1103 139.594 41.0858C139.594 42.0494 139.397 42.8821 139.005 43.584C138.624 44.274 138.089 44.8034 137.399 45.1721C136.721 45.5409 135.93 45.7253 135.025 45.7253C134.133 45.7253 133.342 45.5409 132.652 45.1721C131.962 44.8034 131.421 44.274 131.028 43.584C130.648 42.8821 130.457 42.0494 130.457 41.0858C130.457 40.1103 130.648 39.2775 131.028 38.5875C131.421 37.8976 131.962 37.3682 132.652 36.9994C133.342 36.6306 134.133 36.4462 135.025 36.4462ZM135.025 38.2663C134.573 38.2663 134.187 38.3734 133.866 38.5875C133.556 38.7898 133.318 39.0991 133.152 39.5155C132.985 39.9318 132.902 40.4553 132.902 41.0858C132.902 41.7163 132.985 42.2397 133.152 42.6561C133.318 43.0724 133.556 43.3877 133.866 43.6018C134.187 43.8041 134.573 43.9052 135.025 43.9052C135.466 43.9052 135.84 43.8041 136.15 43.6018C136.471 43.3877 136.715 43.0724 136.881 42.6561C137.048 42.2397 137.131 41.7163 137.131 41.0858C137.131 40.4553 137.048 39.9318 136.881 39.5155C136.715 39.0991 136.471 38.7898 136.15 38.5875C135.84 38.3734 135.466 38.2663 135.025 38.2663ZM141.461 45.5469V36.6247H143.584L143.745 38.3734C143.983 37.7548 144.328 37.2789 144.78 36.9459C145.244 36.6128 145.821 36.4462 146.511 36.4462C146.713 36.4462 146.897 36.4641 147.064 36.4997C147.23 36.5354 147.367 36.583 147.474 36.6425L147.189 38.6946C147.07 38.647 146.921 38.6113 146.743 38.5875C146.576 38.5637 146.356 38.5519 146.082 38.5519C145.726 38.5519 145.381 38.6411 145.047 38.8195C144.714 38.9861 144.441 39.2478 144.227 39.6047C144.012 39.9497 143.905 40.3898 143.905 40.9252V45.5469H141.461ZM152.776 45.7253C151.836 45.7253 151.015 45.5409 150.313 45.1721C149.624 44.8034 149.088 44.274 148.707 43.584C148.327 42.894 148.136 42.0613 148.136 41.0858C148.136 40.1103 148.327 39.2775 148.707 38.5875C149.088 37.8976 149.618 37.3682 150.296 36.9994C150.986 36.6306 151.771 36.4462 152.651 36.4462C153.555 36.4462 154.323 36.6306 154.953 36.9994C155.584 37.3563 156.065 37.85 156.398 38.4805C156.732 39.0991 156.898 39.8069 156.898 40.604C156.898 40.8419 156.892 41.0679 156.88 41.2821C156.868 41.4962 156.851 41.6865 156.827 41.8531H149.707V40.1579H155.756L154.578 40.5861C154.578 39.8367 154.406 39.2597 154.061 38.8552C153.728 38.4507 153.252 38.2485 152.633 38.2485C152.181 38.2485 151.789 38.3556 151.456 38.5697C151.134 38.7838 150.89 39.105 150.724 39.5333C150.557 39.9497 150.474 40.4791 150.474 41.1215C150.474 41.752 150.563 42.2754 150.742 42.6918C150.932 43.0962 151.194 43.3996 151.527 43.6018C151.872 43.8041 152.282 43.9052 152.758 43.9052C153.282 43.9052 153.704 43.8041 154.025 43.6018C154.346 43.3996 154.596 43.12 154.775 42.7631L156.72 43.5126C156.529 43.9766 156.238 44.3751 155.845 44.7082C155.465 45.0413 155.007 45.2971 154.471 45.4755C153.948 45.642 153.383 45.7253 152.776 45.7253Z" fill="white"/>
<path opacity="0.67" d="M76.7952 23.4007C75.9565 23.4007 75.2294 23.2178 74.6137 22.852C74.007 22.4772 73.5342 21.9508 73.1951 21.2727C72.865 20.5946 72.6999 19.7872 72.6999 18.8503C72.6999 17.9135 72.8739 17.1061 73.2219 16.428C73.5788 15.7499 74.0739 15.2279 74.7074 14.8621C75.3409 14.4874 76.0681 14.3 76.8889 14.3C77.7633 14.3 78.4726 14.4651 79.0169 14.7952C79.57 15.1253 80.0161 15.6339 80.3552 16.3209L79.3782 16.8562C79.1819 16.3477 78.8696 15.964 78.4414 15.7053C78.022 15.4376 77.5045 15.3038 76.8889 15.3038C76.2911 15.3038 75.7602 15.4465 75.2963 15.732C74.8413 16.0086 74.4799 16.4146 74.2122 16.9499C73.9535 17.4763 73.8241 18.1098 73.8241 18.8503C73.8241 19.5909 73.9357 20.2288 74.1587 20.7642C74.3907 21.2906 74.7297 21.6965 75.1758 21.982C75.6309 22.2586 76.1841 22.3969 76.8354 22.3969C77.2012 22.3969 77.5402 22.3523 77.8525 22.2631C78.1737 22.165 78.4503 22.0222 78.6823 21.8348C78.9232 21.6475 79.1105 21.411 79.2444 21.1255C79.3782 20.84 79.4451 20.5054 79.4451 20.1218V19.8139H76.6346V18.8102H80.4221V23.2668H79.579L79.5254 21.6207L79.7529 21.6608C79.521 22.214 79.1552 22.6423 78.6555 22.9456C78.1559 23.249 77.5358 23.4007 76.7952 23.4007ZM85.3824 23.4007C84.7489 23.4007 84.1824 23.2624 83.6827 22.9858C83.192 22.7092 82.8083 22.3122 82.5318 21.7947C82.2552 21.2683 82.1169 20.6437 82.1169 19.921C82.1169 19.1983 82.2552 18.5782 82.5318 18.0607C82.8083 17.5343 83.1875 17.1328 83.6693 16.8562C84.1511 16.5796 84.6999 16.4413 85.3155 16.4413C85.94 16.4413 86.4709 16.5752 86.9081 16.8428C87.3542 17.1105 87.6933 17.4763 87.9252 17.9403C88.1572 18.3953 88.2732 18.9083 88.2732 19.4794C88.2732 19.631 88.2687 19.7693 88.2598 19.8942C88.2509 20.0192 88.2375 20.1307 88.2197 20.2288H82.8128V19.2786H87.7513L87.2025 19.3857C87.2025 18.7433 87.0241 18.2481 86.6672 17.9001C86.3192 17.5522 85.8597 17.3782 85.2887 17.3782C84.8515 17.3782 84.4723 17.4808 84.1511 17.686C83.8389 17.8823 83.5935 18.1723 83.4151 18.5559C83.2455 18.9306 83.1608 19.3857 83.1608 19.921C83.1608 20.4474 83.25 20.9025 83.4284 21.2861C83.6069 21.6698 83.8567 21.9642 84.1779 22.1694C84.508 22.3657 84.9006 22.4638 85.3556 22.4638C85.8464 22.4638 86.2434 22.3702 86.5468 22.1828C86.859 21.9954 87.1089 21.7411 87.2962 21.4199L88.1394 21.9151C87.9699 22.2185 87.7513 22.4817 87.4836 22.7047C87.2248 22.9278 86.917 23.1018 86.5601 23.2267C86.2122 23.3427 85.8196 23.4007 85.3824 23.4007ZM91.5588 14.6747V21.4199C91.5588 21.7501 91.6525 21.9954 91.8399 22.156C92.0272 22.3166 92.2681 22.3969 92.5626 22.3969C92.8213 22.3969 93.0444 22.3523 93.2317 22.2631C93.4191 22.1739 93.5886 22.0534 93.7403 21.9017L94.115 22.7984C93.9098 22.9858 93.6645 23.133 93.379 23.2401C93.1024 23.3471 92.7812 23.4007 92.4154 23.4007C92.0763 23.4007 91.7596 23.3427 91.4651 23.2267C91.1707 23.1018 90.9343 22.91 90.7558 22.6512C90.5863 22.3835 90.4971 22.0356 90.4882 21.6073V14.9692L91.5588 14.6747ZM93.9946 16.5752V17.4986H89.1498V16.5752H93.9946ZM102.65 16.4413C103.284 16.4413 103.842 16.5796 104.323 16.8562C104.814 17.1328 105.198 17.5343 105.474 18.0607C105.751 18.5782 105.889 19.1983 105.889 19.921C105.889 20.6437 105.751 21.2683 105.474 21.7947C105.198 22.3122 104.814 22.7092 104.323 22.9858C103.842 23.2624 103.284 23.4007 102.65 23.4007C102.026 23.4007 101.468 23.2624 100.978 22.9858C100.487 22.7092 100.103 22.3122 99.8266 21.7947C99.55 21.2683 99.4117 20.6437 99.4117 19.921C99.4117 19.1983 99.55 18.5782 99.8266 18.0607C100.103 17.5343 100.487 17.1328 100.978 16.8562C101.468 16.5796 102.026 16.4413 102.65 16.4413ZM102.65 17.3648C102.195 17.3648 101.807 17.4674 101.486 17.6726C101.165 17.8778 100.915 18.1723 100.737 18.5559C100.567 18.9306 100.482 19.3857 100.482 19.921C100.482 20.4474 100.567 20.9025 100.737 21.2861C100.915 21.6698 101.165 21.9642 101.486 22.1694C101.807 22.3746 102.195 22.4772 102.65 22.4772C103.105 22.4772 103.494 22.3746 103.815 22.1694C104.136 21.9642 104.381 21.6698 104.551 21.2861C104.729 20.9025 104.819 20.4474 104.819 19.921C104.819 19.3857 104.729 18.9306 104.551 18.5559C104.381 18.1723 104.136 17.8778 103.815 17.6726C103.494 17.4674 103.105 17.3648 102.65 17.3648ZM107.771 23.2668V16.5752H108.708L108.802 18.0741L108.628 17.9269C108.77 17.57 108.962 17.2845 109.203 17.0704C109.444 16.8473 109.721 16.6867 110.033 16.5886C110.354 16.4904 110.684 16.4413 111.023 16.4413C111.505 16.4413 111.942 16.535 112.335 16.7224C112.727 16.9008 113.04 17.1774 113.272 17.5522C113.513 17.9269 113.633 18.4042 113.633 18.9842V23.2668H112.562V19.3589C112.562 18.6184 112.402 18.1053 112.08 17.8198C111.768 17.5254 111.38 17.3782 110.916 17.3782C110.595 17.3782 110.274 17.454 109.953 17.6057C109.631 17.7574 109.364 18.0027 109.15 18.3418C108.944 18.6808 108.842 19.1359 108.842 19.7069V23.2668H107.771ZM121.669 14.6747V21.4199C121.669 21.7501 121.762 21.9954 121.95 22.156C122.137 22.3166 122.378 22.3969 122.672 22.3969C122.931 22.3969 123.154 22.3523 123.342 22.2631C123.529 22.1739 123.699 22.0534 123.85 21.9017L124.225 22.7984C124.02 22.9858 123.774 23.133 123.489 23.2401C123.212 23.3471 122.891 23.4007 122.525 23.4007C122.186 23.4007 121.869 23.3427 121.575 23.2267C121.281 23.1018 121.044 22.91 120.866 22.6512C120.696 22.3835 120.607 22.0356 120.598 21.6073V14.9692L121.669 14.6747ZM124.104 16.5752V17.4986H119.26V16.5752H124.104ZM125.563 23.2668V13.497H126.633V17.5789C126.865 17.1774 127.173 16.8875 127.557 16.709C127.94 16.5306 128.36 16.4413 128.815 16.4413C129.296 16.4413 129.734 16.535 130.126 16.7224C130.519 16.9008 130.831 17.1774 131.063 17.5522C131.304 17.9269 131.424 18.4042 131.424 18.9842V23.2668H130.354V19.3589C130.354 18.6184 130.193 18.1053 129.872 17.8198C129.56 17.5254 129.172 17.3782 128.708 17.3782C128.386 17.3782 128.065 17.454 127.744 17.6057C127.423 17.7574 127.155 18.0072 126.941 18.3552C126.736 18.6942 126.633 19.1492 126.633 19.7203V23.2668H125.563ZM136.512 23.4007C135.878 23.4007 135.312 23.2624 134.812 22.9858C134.322 22.7092 133.938 22.3122 133.661 21.7947C133.385 21.2683 133.246 20.6437 133.246 19.921C133.246 19.1983 133.385 18.5782 133.661 18.0607C133.938 17.5343 134.317 17.1328 134.799 16.8562C135.281 16.5796 135.829 16.4413 136.445 16.4413C137.07 16.4413 137.6 16.5752 138.038 16.8428C138.484 17.1105 138.823 17.4763 139.055 17.9403C139.287 18.3953 139.403 18.9083 139.403 19.4794C139.403 19.631 139.398 19.7693 139.389 19.8942C139.38 20.0192 139.367 20.1307 139.349 20.2288H133.942V19.2786H138.881L138.332 19.3857C138.332 18.7433 138.154 18.2481 137.797 17.9001C137.449 17.5522 136.989 17.3782 136.418 17.3782C135.981 17.3782 135.602 17.4808 135.281 17.686C134.968 17.8823 134.723 18.1723 134.545 18.5559C134.375 18.9306 134.29 19.3857 134.29 19.921C134.29 20.4474 134.38 20.9025 134.558 21.2861C134.736 21.6698 134.986 21.9642 135.307 22.1694C135.638 22.3657 136.03 22.4638 136.485 22.4638C136.976 22.4638 137.373 22.3702 137.676 22.1828C137.989 21.9954 138.238 21.7411 138.426 21.4199L139.269 21.9151C139.099 22.2185 138.881 22.4817 138.613 22.7047C138.354 22.9278 138.047 23.1018 137.69 23.2267C137.342 23.3427 136.949 23.4007 136.512 23.4007Z" fill="white"/>
</svg>
